<svg width="1000" height="200" xmlns="http://www.w3.org/2000/svg" xmlns:xlink="http://www.w3.org/1999/xlink" viewBox="0 0 500 100"><mask id="crop"><path d="M0,0 h500 v72 q0,28 -28,28 h-472 z" fill="white"/></mask><defs><filter y="-5" height="52" id="blur" color-interpolation-filters="sRGB"><feDropShadow dx="0" dy="2" stdDeviation="12" flood-color="#148CC0" flood-opacity="0.5"/></filter></defs><g mask="url(#crop)" ><svg x="0" y="0" xmlns="http://www.w3.org/2000/svg" xmlns:xlink="http://www.w3.org/1999/xlink" viewBox="0 0 500 100">
  <defs>
    <path id="reuse-0" fill="url(#c)" d="M0 30.76 57.6 0l57.6 30.76v70.984l-57.6 31.943L0 101.744Z" />
    <path id="reuse-1" fill="url(#d)" d="M0 30.76 57.6 0l57.6 30.76v70.984l-57.6 31.943L0 101.744Z" />
    <path id="reuse-2" fill="url(#e)" d="M0 31.943 57.6 0v70.984L0 102.927Z" />
    <path id="reuse-3" fill="url(#f)" d="m0 0 57.6 39.041L0 70.984Z" />
    <path id="reuse-4" fill="url(#g)" d="M0 31.943-57.6 0v70.984L0 102.927Z" />
    <path id="reuse-5" fill="url(#g)" d="m0 0-57.6 39.041L0 70.984Z" />
    <path id="reuse-6" fill="url(#c)" d="M0 30.421 56.751 0 113.5 30.421v70.2l-56.749 31.592L0 100.622Z" />
    <path id="reuse-7" fill="url(#d)" d="M0 30.421 56.751 0 113.5 30.421v70.2l-56.749 31.592L0 100.622Z" />
    <path id="reuse-8" fill="url(#e)" d="M0 31.591 56.751 0v70.2L0 101.792Z" />
    <path id="reuse-9" fill="url(#f)" d="m0 0 56.751 38.611L0 70.2Z" />
    <path id="reuse-10" fill="url(#g)" d="M0 31.591-56.751 0v70.2L0 101.792Z" />
    <path id="reuse-11" fill="url(#g)" d="m0 0-56.751 38.611L0 70.2Z" />
  </defs>
  <defs>
    <linearGradient id="c" x1=".5" x2=".5" y2="1" gradientUnits="objectBoundingBox">
      <stop offset="0" stop-color="#fff" />
      <stop offset="1" stop-color="#f7fbff" />
    </linearGradient>
    <linearGradient id="d" x1=".5" x2=".5" y2="1" gradientUnits="objectBoundingBox">
      <stop offset="0" stop-color="#d0deea" />
      <stop offset="1" stop-color="#dae1e8" />
    </linearGradient>
    <linearGradient id="e" x1=".5" x2=".5" y2="1" gradientUnits="objectBoundingBox">
      <stop offset="0" stop-color="#bdc2c8" />
      <stop offset="1" stop-color="#dcedef" />
    </linearGradient>
    <linearGradient id="f" x1=".5" x2=".5" y2="1" gradientUnits="objectBoundingBox">
      <stop offset="0" stop-color="#adbbca" stop-opacity=".702" />
      <stop offset="1" stop-color="#e4e8e9" stop-opacity="0" />
    </linearGradient>
    <linearGradient id="g" x1=".5" x2=".5" y2="1" gradientUnits="objectBoundingBox">
      <stop offset="0" stop-color="#7692ae" />
      <stop offset="1" stop-color="#93b0ce" />
    </linearGradient>
    <radialGradient id="b" cx="-.061" cy="-.082" r="1.895" gradientUnits="objectBoundingBox">
      <stop offset="0" stop-color="#002c69" />
      <stop offset=".748" stop-color="#20569a" />
      <stop offset="1" stop-color="#28abd8" />
    </radialGradient>
    <clipPath id="a">
      <path d="M0 0h500v100H0z" />
    </clipPath>
  </defs>
  <g clip-path="url(#a)">
    <path fill="url(#b)" d="M0 0h502v150H0z" transform="translate(0 -3)" />
    <g opacity=".3" style="mix-blend-mode: color-burn; isolation: isolate">
      <g>
        <g>
          <use xlink:href="#reuse-0" transform="translate(115.645 -71.225)" />
          <g opacity=".237">
            <g>
              <use xlink:href="#reuse-1" transform="translate(115.645 -71.225)" />
              <use xlink:href="#reuse-2" transform="translate(173.246 -40.465)" />
              <use xlink:href="#reuse-2" transform="translate(173.246 -40.465)" />
              <use xlink:href="#reuse-3" transform="translate(173.246 -8.522)" />
              <use xlink:href="#reuse-4" transform="translate(173.246 -40.465)" />
              <use xlink:href="#reuse-5" transform="translate(173.246 -8.522)" />
            </g>
          </g>
        </g>
        <g>
          <use xlink:href="#reuse-0" transform="translate(170.686 -40.374)" />
          <g opacity=".237">
            <g>
              <use xlink:href="#reuse-1" transform="translate(170.686 -40.374)" />
              <use xlink:href="#reuse-2" transform="translate(228.287 -9.614)" />
              <use xlink:href="#reuse-2" transform="translate(228.287 -9.614)" />
              <use xlink:href="#reuse-3" transform="translate(228.287 22.329)" />
              <use xlink:href="#reuse-4" transform="translate(228.287 -9.614)" />
              <use xlink:href="#reuse-5" transform="translate(228.287 22.329)" />
            </g>
          </g>
        </g>
        <g>
          <use xlink:href="#reuse-0" transform="translate(228.287 -8.517)" />
          <g opacity=".237">
            <g>
              <use xlink:href="#reuse-1" transform="translate(228.287 -8.517)" />
              <use xlink:href="#reuse-2" transform="translate(285.888 22.243)" />
              <use xlink:href="#reuse-2" transform="translate(285.888 22.243)" />
              <use xlink:href="#reuse-3" transform="translate(285.888 54.186)" />
              <use xlink:href="#reuse-4" transform="translate(285.888 22.243)" />
              <use xlink:href="#reuse-5" transform="translate(285.888 54.186)" />
            </g>
          </g>
        </g>
        <g>
          <use xlink:href="#reuse-0" transform="translate(170.686 93.313)" />
          <g opacity=".237">
            <g>
              <use xlink:href="#reuse-1" transform="translate(170.686 93.313)" />
              <use xlink:href="#reuse-2" transform="translate(228.287 124.073)" />
              <use xlink:href="#reuse-2" transform="translate(228.287 124.073)" />
              <use xlink:href="#reuse-3" transform="translate(228.287 156.016)" />
              <use xlink:href="#reuse-4" transform="translate(228.287 124.073)" />
              <use xlink:href="#reuse-5" transform="translate(228.287 156.016)" />
            </g>
          </g>
        </g>
        <g>
          <use xlink:href="#reuse-0" transform="translate(0 -.822)" />
          <g opacity=".237">
            <g>
              <use xlink:href="#reuse-1" transform="translate(0 -.822)" />
              <use xlink:href="#reuse-2" transform="translate(57.601 29.938)" />
              <use xlink:href="#reuse-2" transform="translate(57.601 29.938)" />
              <use xlink:href="#reuse-3" transform="translate(57.601 61.881)" />
              <use xlink:href="#reuse-4" transform="translate(57.601 29.938)" />
              <use xlink:href="#reuse-5" transform="translate(57.601 61.881)" />
            </g>
          </g>
        </g>
      </g>
      <g>
        <use xlink:href="#reuse-6" transform="translate(341.499 -9.592)" />
        <g opacity=".237">
          <g>
            <use xlink:href="#reuse-7" transform="translate(341.499 -9.592)" />
            <use xlink:href="#reuse-8" transform="translate(398.25 20.829)" />
            <use xlink:href="#reuse-8" transform="translate(398.25 20.829)" />
            <use xlink:href="#reuse-9" transform="translate(398.25 52.419)" />
            <use xlink:href="#reuse-10" transform="translate(398.25 20.829)" />
            <use xlink:href="#reuse-11" transform="translate(398.25 52.419)" />
          </g>
        </g>
      </g>
      <g>
        <use xlink:href="#reuse-6" transform="translate(284.748 -109)" />
        <g opacity=".237">
          <g>
            <use xlink:href="#reuse-7" transform="translate(284.748 -109)" />
            <use xlink:href="#reuse-8" transform="translate(341.499 -78.579)" />
            <use xlink:href="#reuse-8" transform="translate(341.499 -78.579)" />
            <use xlink:href="#reuse-9" transform="translate(341.499 -46.989)" />
            <use xlink:href="#reuse-10" transform="translate(341.499 -78.579)" />
            <use xlink:href="#reuse-11" transform="translate(341.499 -46.989)" />
          </g>
        </g>
      </g>
    </g>
  </g>
</svg><svg width="182.53" height="41.12" x="48.5" y="29.44" xmlns="http://www.w3.org/2000/svg" viewBox="0 0 182.53 41.12">
  <defs>
    <linearGradient id="logo-a" x1="-.061" x2=".914" y1="2.499" y2="1.52" gradientUnits="objectBoundingBox">
      <stop offset=".1" stop-color="#76b3e1" />
      <stop offset=".3" stop-color="#dcf2fd" />
      <stop offset="1" stop-color="#76b3e1" />
    </linearGradient>
    <linearGradient id="logo-b" x1=".571" x2=".381" y1="1.757" y2=".412" gradientUnits="objectBoundingBox">
      <stop offset="0" stop-color="#76b3e1" />
      <stop offset=".5" stop-color="#4377bb" />
      <stop offset="1" stop-color="#1f3b77" />
    </linearGradient>
    <linearGradient id="logo-c" x1=".107" x2="1.045" y1=".443" y2="-.683" gradientUnits="objectBoundingBox">
      <stop offset="0" stop-color="#315aa9" />
      <stop offset=".5" stop-color="#518ac8" />
      <stop offset="1" stop-color="#315aa9" />
    </linearGradient>
    <linearGradient id="logo-d" x1=".621" x2=".178" y1="-.213" y2="-3.668" gradientUnits="objectBoundingBox">
      <stop offset="0" stop-color="#4377bb" />
      <stop offset=".5" stop-color="#1a336b" />
      <stop offset="1" stop-color="#1a336b" />
    </linearGradient>
  </defs>
  <path fill="#76b3e1" d="M44.082 8.847S29.47-2.187 18.131.39l-1 .275a7.233 7.233 0 0 0-3.854 2.706 6.547 6.547 0 0 0-.416.691l-4.182 7.116 7.233 1.411a12.884 12.884 0 0 0 10.313 2.026l12.884 2.519Z" />
  <path fill="url(#logo-a)" d="M50.763 9.091S36.151-1.943 24.812.634l-1 .275a7.233 7.233 0 0 0-3.854 2.706 6.547 6.547 0 0 0-.416.691l-4.182 7.116 7.233 1.411a12.884 12.884 0 0 0 10.313 2.026l12.884 2.519Z" opacity=".3" style="isolation:isolate" transform="translate(-6.681 -.244)" />
  <path fill="#518ac8" d="m13.154 8.706-1 .281c-4.627 1.493-6.208 5.821-3.549 9.616a12.369 12.369 0 0 0 13.2 4.158l17.288-5.628S24.51 6.13 13.154 8.706Z" />
  <path fill="url(#logo-b)" d="m18.868 14.833-1 .281c-4.627 1.493-6.208 5.821-3.549 9.616a12.369 12.369 0 0 0 13.2 4.158l17.288-5.628s-14.583-11.003-25.939-8.427Z" opacity=".3" style="isolation:isolate" transform="translate(-5.714 -6.127)" />
  <path fill="url(#logo-c)" d="M36.47 33.094a12.363 12.363 0 0 0-13.224-4.187l-17.271 5.6L.54 44.181l30.94 5.271 5.546-9.868a5.867 5.867 0 0 0-.556-6.49Z" transform="translate(-.54 -11.908)" />
  <path fill="url(#logo-d)" d="M31.035 49.621a12.381 12.381 0 0 0-13.195-4.187l-17.3 5.6s14.641 11.034 25.95 8.457l1-.275c4.632-1.47 6.214-5.8 3.549-9.593Z" transform="translate(-.54 -18.76)" />
  <g fill="#fff">
    <!-- <text font-family="Gordita-Regular, Gordita" font-size="12" letter-spacing=".03em" transform="translate(57.665 37.12)">
      <tspan x="0" y="0">$CONTEXT</tspan>
    </text> -->
    <path d="M58.782 16.494a6.18 6.18 0 0 0 4.168 1.751c1.751 0 3.193-1.03 3.193-2.781 0-4.017-7.982-3.038-7.982-7.982 0-2.317 2.06-4.274 5-4.274a6.18 6.18 0 0 1 4.274 1.545l-.778 1.339a5.346 5.346 0 0 0-3.5-1.39 3.116 3.116 0 0 0-3.4 2.729c0 3.811 7.982 2.729 7.982 7.982 0 2.369-1.854 4.326-4.841 4.326a6.88 6.88 0 0 1-5.047-2.06ZM84.068 3.31a8.1 8.1 0 0 1 8.137 8.188 8.24 8.24 0 0 1-8.137 8.343h-.051a8.24 8.24 0 0 1-8.137-8.343v-.051a8.1 8.1 0 0 1 8.188-8.137Zm-.051 15.089a6.7 6.7 0 0 0 6.54-6.844v-.057a6.517 6.517 0 1 0-13.029-.051 6.7 6.7 0 0 0 6.488 6.952Zm17.458-14.78h1.545l-.052 14.574h7.416v1.39h-9.012Zm17.458.051h1.545l-.052 16.016h-1.546Zm11.948 0h5.15c4.789 0 8.034 2.935 8.034 8.034s-3.244 7.982-8.034 7.982h-5.15Zm4.944 14.625c3.914 0 6.54-2.317 6.592-6.592s-2.626-6.592-6.54-6.592h-3.45l-.051 13.183Zm21.717 1.39a5.289 5.289 0 0 0 3.636-1.3 4.635 4.635 0 0 0 1.473-3.656V3.861h-3.221v10.635a2.163 2.163 0 0 1-.515 1.545 1.859 1.859 0 0 1-1.426.551 2.343 2.343 0 0 1-2.209-1.777l-2.73 1.519a4.937 4.937 0 0 0 4.985 3.353Zm19.291.036a6.105 6.105 0 0 0 4.192-1.334 4.434 4.434 0 0 0 1.5-3.5 3.651 3.651 0 0 0-1.287-2.92 11.266 11.266 0 0 0-4.156-1.926 6.056 6.056 0 0 1-1.936-.809 1.323 1.323 0 0 1-.567-1.107 1.39 1.39 0 0 1 .567-1.159 2.369 2.369 0 0 1 1.5-.438 2.92 2.92 0 0 1 2.941 1.916l2.662-1.457a5.175 5.175 0 0 0-2.1-2.493 6.267 6.267 0 0 0-3.363-.881 5.721 5.721 0 0 0-3.836 1.345 4.177 4.177 0 0 0-1.591 3.373 3.863 3.863 0 0 0 1.195 2.889 9.13 9.13 0 0 0 3.8 1.9 8.5 8.5 0 0 1 2.328.937 1.2 1.2 0 0 1 .613 1.076 1.411 1.411 0 0 1-.664 1.19 2.9 2.9 0 0 1-1.7.469 3.6 3.6 0 0 1-3.4-2.178l-2.781 1.437a5.588 5.588 0 0 0 2.312 2.693 7.076 7.076 0 0 0 3.769.979Z" />
  </g>
</svg><path d="M109.48 67.11L109.48 67.11Q106.69 67.11 105.69 64.44L105.69 64.44L106.68 63.92Q107.10 64.94 107.76 65.49Q108.42 66.03 109.48 66.03L109.48 66.03Q110.46 66.03 111.15 65.50L111.15 65.50Q111.83 64.98 111.83 64.13L111.83 64.13Q111.83 63.29 111.19 62.77Q110.54 62.25 109.28 61.95L109.28 61.95Q107.60 61.54 106.81 60.80Q106.01 60.06 106.01 58.91L106.01 58.91Q106.01 57.55 107.02 56.74L107.02 56.74Q108.04 55.91 109.45 55.91L109.45 55.91Q110.75 55.91 111.64 56.53Q112.52 57.16 112.91 58.19L112.91 58.19L111.93 58.74Q111.23 56.99 109.42 56.99L109.42 56.99Q108.49 56.99 107.83 57.51L107.83 57.51Q107.16 58.03 107.16 58.85L107.16 58.85Q107.16 59.59 107.70 60.04Q108.25 60.49 109.49 60.81L109.49 60.81Q111.44 61.30 112.25 62.20L112.25 62.20Q113.01 63.01 113.01 64.05L113.01 64.05Q113.01 65.31 112.04 66.22L112.04 66.22Q111.09 67.11 109.48 67.11ZM119.03 67.13L119.03 67.13Q117.40 67.13 116.28 66.01L116.28 66.01Q115.18 64.90 115.18 63.29L115.18 63.29Q115.18 61.62 116.28 60.52L116.28 60.52Q117.40 59.40 119.06 59.40L119.06 59.40Q120.67 59.40 121.79 60.52L121.79 60.52Q122.91 61.64 122.91 63.23L122.91 63.23Q122.91 64.89 121.79 66.01L121.79 66.01Q120.67 67.13 119.03 67.13ZM119.06 66.16L119.06 66.16Q120.23 66.16 121.00 65.32L121.00 65.32Q121.79 64.47 121.79 63.29L121.79 63.29Q121.79 62.09 121.00 61.22L121.00 61.22Q120.22 60.35 119.03 60.35L119.03 60.35Q117.85 60.35 117.07 61.19L117.07 61.19Q116.30 62.02 116.30 63.23L116.30 63.23Q116.30 64.45 117.07 65.31L117.07 65.31Q117.84 66.16 119.06 66.16ZM125.52 55.59L126.63 55.59L126.63 67L125.52 67L125.52 55.59ZM129.53 56.85L129.53 56.85Q129.53 56.50 129.77 56.26Q130.00 56.02 130.34 56.02L130.34 56.02Q130.69 56.02 130.93 56.26Q131.17 56.50 131.17 56.85L131.17 56.85Q131.17 57.19 130.93 57.42Q130.69 57.66 130.34 57.66L130.34 57.66Q130.00 57.66 129.77 57.42Q129.53 57.19 129.53 56.85ZM129.79 59.52L130.90 59.52L130.90 67L129.79 67L129.79 59.52ZM133.53 63.25L133.53 63.25Q133.53 61.71 134.51 60.56L134.51 60.56Q135.51 59.40 137.03 59.40L137.03 59.40Q138.78 59.40 139.93 61.09L139.93 61.09L139.93 55.60L141.01 55.60L141.01 67L139.94 67L139.94 65.40Q138.91 67.11 137.03 67.11L137.03 67.11Q135.49 67.11 134.50 65.98L134.50 65.98Q133.53 64.84 133.53 63.25ZM137.26 66.15L137.26 66.15Q138.42 66.15 139.17 65.29L139.17 65.29Q139.94 64.44 139.94 63.23L139.94 63.23Q139.94 62.10 139.16 61.23L139.16 61.23Q138.38 60.36 137.26 60.36L137.26 60.36Q136.07 60.36 135.35 61.20L135.35 61.20Q134.64 62.02 134.64 63.28L134.64 63.28Q134.64 64.48 135.35 65.32L135.35 65.32Q136.07 66.15 137.26 66.15ZM153.78 67.11L153.78 67.11Q151.47 67.11 149.88 65.56L149.88 65.56Q148.32 63.99 148.32 61.55L148.32 61.55Q148.32 59.09 149.93 57.52L149.93 57.52Q151.55 55.93 153.83 55.93L153.83 55.93Q155.71 55.93 157.00 56.92L157.00 56.92Q158.28 57.91 158.72 59.29L158.72 59.29L157.68 59.76Q157.28 58.59 156.32 57.82L156.32 57.82Q155.39 57.02 153.80 57.02L153.80 57.02Q152.03 57.02 150.77 58.28L150.77 58.28Q149.52 59.55 149.52 61.48L149.52 61.48Q149.52 63.44 150.74 64.73L150.74 64.73Q151.96 66.02 153.82 66.02L153.82 66.02Q155.27 66.02 156.25 65.28Q157.22 64.54 157.70 63.25L157.70 63.25L158.73 63.74Q158.26 65.14 156.94 66.13L156.94 66.13Q155.67 67.11 153.78 67.11ZM164.51 67.13L164.51 67.13Q162.89 67.13 161.77 66.01L161.77 66.01Q160.66 64.90 160.66 63.29L160.66 63.29Q160.66 61.62 161.77 60.52L161.77 60.52Q162.89 59.40 164.54 59.40L164.54 59.40Q166.15 59.40 167.27 60.52L167.27 60.52Q168.39 61.64 168.39 63.23L168.39 63.23Q168.39 64.89 167.27 66.01L167.27 66.01Q166.15 67.13 164.51 67.13ZM164.54 66.16L164.54 66.16Q165.72 66.16 166.49 65.32L166.49 65.32Q167.27 64.47 167.27 63.29L167.27 63.29Q167.27 62.09 166.49 61.22L166.49 61.22Q165.70 60.35 164.51 60.35L164.51 60.35Q163.34 60.35 162.55 61.19L162.55 61.19Q161.78 62.02 161.78 63.23L161.78 63.23Q161.78 64.45 162.55 65.31L162.55 65.31Q163.32 66.16 164.54 66.16ZM171.01 55.59L172.12 55.59L172.12 67L171.01 67L171.01 55.59ZM178.58 67.13L178.58 67.13Q176.96 67.13 175.84 66.01L175.84 66.01Q174.73 64.90 174.73 63.29L174.73 63.29Q174.73 61.62 175.84 60.52L175.84 60.52Q176.96 59.40 178.61 59.40L178.61 59.40Q180.22 59.40 181.34 60.52L181.34 60.52Q182.46 61.64 182.46 63.23L182.46 63.23Q182.46 64.89 181.34 66.01L181.34 66.01Q180.22 67.13 178.58 67.13ZM178.61 66.16L178.61 66.16Q179.79 66.16 180.56 65.32L180.56 65.32Q181.34 64.47 181.34 63.29L181.34 63.29Q181.34 62.09 180.56 61.22L180.56 61.22Q179.77 60.35 178.58 60.35L178.58 60.35Q177.41 60.35 176.62 61.19L176.62 61.19Q175.85 62.02 175.85 63.23L175.85 63.23Q175.85 64.45 176.62 65.31L176.62 65.31Q177.39 66.16 178.61 66.16ZM185.08 67L185.08 59.52L186.16 59.52L186.16 61.01Q186.55 60.20 187.20 59.80Q187.85 59.41 188.57 59.41L188.57 59.41Q188.71 59.41 188.80 59.41Q188.89 59.41 188.93 59.43L188.93 59.43L188.93 60.59Q188.79 60.57 188.68 60.57Q188.58 60.56 188.51 60.56L188.51 60.56Q187.31 60.56 186.73 61.39L186.73 61.39Q186.17 62.20 186.17 63.35L186.17 63.35L186.17 67L185.08 67ZM197.15 62.72L197.15 67L196.00 67L196.00 56.04L199.67 56.04Q201.54 56.04 202.54 56.99L202.54 56.99Q203.52 57.93 203.52 59.33L203.52 59.33Q203.52 60.80 202.45 61.76L202.45 61.76Q201.38 62.72 199.47 62.72L199.47 62.72L197.15 62.72ZM199.57 57.12L197.15 57.12L197.15 61.65L199.51 61.65Q200.91 61.65 201.63 60.98L201.63 60.98Q202.34 60.28 202.34 59.37L202.34 59.37Q202.34 58.42 201.70 57.77L201.70 57.77Q201.04 57.12 199.57 57.12L199.57 57.12ZM205.67 56.85L205.67 56.85Q205.67 56.50 205.91 56.26Q206.15 56.02 206.49 56.02L206.49 56.02Q206.84 56.02 207.07 56.26Q207.31 56.50 207.31 56.85L207.31 56.85Q207.31 57.19 207.07 57.42Q206.84 57.66 206.49 57.66L206.49 57.66Q206.15 57.66 205.91 57.42Q205.67 57.19 205.67 56.85ZM205.94 59.52L207.05 59.52L207.05 67L205.94 67L205.94 59.52ZM210.78 63.22L210.78 63.22Q210.78 64.42 211.54 65.29L211.54 65.29Q212.30 66.16 213.49 66.16L213.49 66.16Q215.21 66.16 215.85 64.48L215.85 64.48L216.80 64.90Q216.45 65.87 215.60 66.50Q214.75 67.13 213.47 67.13L213.47 67.13Q211.88 67.13 210.76 66.03L210.76 66.03Q209.66 64.91 209.66 63.26L209.66 63.26Q209.66 61.62 210.77 60.52L210.77 60.52Q211.89 59.40 213.49 59.40L213.49 59.40Q214.75 59.40 215.60 60.02Q216.45 60.64 216.78 61.58L216.78 61.58L215.82 62.00Q215.57 61.30 214.99 60.83Q214.41 60.36 213.49 60.36L213.49 60.36Q212.32 60.36 211.54 61.20L211.54 61.20Q210.78 62.02 210.78 63.22ZM220.40 63.26L220.40 67L219.31 67L219.31 55.59L220.40 55.59L220.40 62.56L223.96 59.52L225.51 59.52L221.58 62.88L225.69 67L224.17 67L220.44 63.26L220.40 63.26ZM234.25 63.60L234.25 63.60L228.20 63.60Q228.27 64.69 229.03 65.43L229.03 65.43Q229.77 66.16 230.87 66.16L230.87 66.16Q231.66 66.16 232.29 65.75Q232.92 65.33 233.24 64.66L233.24 64.66L234.05 65.19Q233.58 66.12 232.74 66.62Q231.90 67.13 230.89 67.13L230.89 67.13Q229.28 67.13 228.19 66.01L228.19 66.01Q227.09 64.87 227.09 63.25L227.09 63.25Q227.09 61.69 228.14 60.55L228.14 60.55Q229.19 59.40 230.73 59.40L230.73 59.40Q232.41 59.40 233.34 60.48L233.34 60.48Q234.26 61.54 234.26 63.23L234.26 63.23Q234.26 63.36 234.26 63.45Q234.26 63.54 234.25 63.60ZM228.21 62.67L228.21 62.67L233.16 62.67Q233.04 61.62 232.41 60.99Q231.78 60.35 230.73 60.35L230.73 60.35Q229.77 60.35 229.07 61.04L229.07 61.04Q228.37 61.69 228.21 62.67ZM236.84 67L236.84 59.52L237.92 59.52L237.92 61.01Q238.31 60.20 238.96 59.80Q239.61 59.41 240.32 59.41L240.32 59.41Q240.46 59.41 240.55 59.41Q240.65 59.41 240.69 59.43L240.69 59.43L240.69 60.59Q240.55 60.57 240.44 60.57Q240.34 60.56 240.27 60.56L240.27 60.56Q239.06 60.56 238.49 61.39L238.49 61.39Q237.93 62.20 237.93 63.35L237.93 63.35L237.93 67L236.84 67Z" fill="#fff"/><path d="M448.99,72 h51.01 v28 h-51.01 q0,-28 28,-28 z" fill="#0E478C" filter="url(#blur)" /><path d="" fill="#fff"/></g></svg>