<svg xmlns="http://www.w3.org/2000/svg" xmlns:xlink="http://www.w3.org/1999/xlink" viewBox="0 0 351 70">
  <defs>
    <style>
      .a1 {
        fill: #76b3e1;
      }

      .b1, .d1 {
        isolation: isolate;
        opacity: 0.3;
      }

      .b1 {
        fill: url(#a1);
      }

      .c1 {
        fill: #518ac8;
      }

      .d1 {
        fill: url(#b1);
      }

      .e1 {
        fill: url(#c1);
      }

      .f1 {
        fill: url(#d1);
      }

      .g1 {
        fill: #58595b;
      }
    </style>
    <linearGradient id="a1" x1="11.67" y1="73.36" x2="70.61" y2="44.72" gradientTransform="matrix(1, 0, 0, -1, 0, 73.4)" gradientUnits="userSpaceOnUse">
      <stop offset="0.1" stop-color="#76b3e1"/>
      <stop offset="0.3" stop-color="#dcf2fd"/>
      <stop offset="1" stop-color="#76b3e1"/>
    </linearGradient>
    <linearGradient id="b1" x1="44" y1="59.33" x2="33.68" y2="24.96" gradientTransform="matrix(1, 0, 0, -1, 0, 73.4)" gradientUnits="userSpaceOnUse">
      <stop offset="0" stop-color="#76b3e1"/>
      <stop offset="0.5" stop-color="#4377bb"/>
      <stop offset="1" stop-color="#1f3b77"/>
    </linearGradient>
    <linearGradient id="c1" x1="7.34" y1="44.34" x2="66.94" y2="3.82" gradientTransform="matrix(1, 0, 0, -1, 0, 73.4)" gradientUnits="userSpaceOnUse">
      <stop offset="0" stop-color="#315aa9"/>
      <stop offset="0.5" stop-color="#518ac8"/>
      <stop offset="1" stop-color="#315aa9"/>
    </linearGradient>
    <linearGradient id="d1" x1="34.25" y1="39.49" x2="10.2" y2="-48.7" gradientTransform="matrix(1, 0, 0, -1, 0, 73.4)" gradientUnits="userSpaceOnUse">
      <stop offset="0" stop-color="#4377bb"/>
      <stop offset="0.5" stop-color="#1a336b"/>
      <stop offset="1" stop-color="#1a336b"/>
    </linearGradient>
  </defs>
  <g>
    <path class="a1" d="M75.81,15.35S50.86-3.49,31.5.91l-1.7.47A12.35,12.35,0,0,0,23.22,6a11.18,11.18,0,0,0-.71,1.18L15.36,19.33l12.35,2.41A22,22,0,0,0,45.32,25.2l22,4.3Z"/>
    <path class="b1" d="M75.81,15.35S50.86-3.49,31.5.91l-1.7.47A12.35,12.35,0,0,0,23.22,6a11.18,11.18,0,0,0-.71,1.18L15.36,19.33l12.35,2.41A22,22,0,0,0,45.32,25.2l22,4.3Z"/>
    <path class="c1" d="M23,15.11l-1.71.48c-7.9,2.55-10.6,9.94-6.06,16.42a21.12,21.12,0,0,0,22.54,7.1L67.29,29.5S42.39,10.71,23,15.11Z"/>
    <path class="d1" d="M23,15.11l-1.71.48c-7.9,2.55-10.6,9.94-6.06,16.42a21.12,21.12,0,0,0,22.54,7.1L67.29,29.5S42.39,10.71,23,15.11Z"/>
    <path class="e1" d="M61.89,36.42a21.11,21.11,0,0,0-22.58-7.15L9.82,38.83.54,55.35l52.83,9,9.47-16.85C64.73,44.27,64.54,40.2,61.89,36.42Z"/>
    <path class="f1" d="M52.61,52.94a21.14,21.14,0,0,0-22.53-7.15L.54,55.35s25,18.84,44.31,14.44l1.7-.47C54.46,66.81,57.16,59.42,52.61,52.94Z"/>
  </g>
  <g fill="var(--heading-color)" transform="translate(0, -10)">
    <path class="g" d="M109.71,45a12,12,0,0,0,8.1,3.4c3.4,0,6.2-2,6.2-5.4,0-7.8-15.5-5.9-15.5-15.5,0-4.5,4-8.3,9.7-8.3a12,12,0,0,1,8.3,3L125,24.8a10.38,10.38,0,0,0-6.8-2.7c-4,0-6.5,2.6-6.6,5.3,0,7.4,15.5,5.3,15.5,15.5,0,4.6-3.6,8.4-9.4,8.4a13.36,13.36,0,0,1-9.8-4Zm49.1-25.6a15.73,15.73,0,0,1,15.8,15.9,16,16,0,0,1-15.8,16.2h-.1a16,16,0,0,1-15.8-16.2v-.1A15.73,15.73,0,0,1,158.81,19.4Zm-.1,29.3a13,13,0,0,0,12.7-13.29V35.3c0-7.4-5.6-13.1-12.6-13.1a12.72,12.72,0,0,0-12.7,13C146.11,42.8,151.71,48.6,158.71,48.7ZM192.61,20h3l-.1,28.3h14.4V51h-17.5Zm33.9.1h3l-.1,31.1h-3Zm23.2,0h10c9.3,0,15.6,5.7,15.6,15.6s-6.3,15.5-15.6,15.5h-10Zm9.6,28.4c7.6,0,12.7-4.5,12.8-12.8s-5.1-12.8-12.7-12.8h-6.7l-.1,25.6Z"/>
    <g>
      <path class="g" d="M301.48,51.2a10.27,10.27,0,0,0,7.06-2.52,9,9,0,0,0,2.86-7.1h0V20.47h-6.25V41.12a4.2,4.2,0,0,1-1,3,3.61,3.61,0,0,1-2.77,1.07q-2.94,0-4.29-3.45h0l-5.29,2.95Q294.39,51.2,301.48,51.2Z"/>
      <path class="g" d="M338.94,51.27c3.47,0,6.19-.86,8.14-2.59A8.61,8.61,0,0,0,350,41.89a7.09,7.09,0,0,0-2.5-5.67c-1.68-1.44-4.37-2.68-8.07-3.74a11.76,11.76,0,0,1-3.76-1.57,2.57,2.57,0,0,1-1.1-2.15,2.7,2.7,0,0,1,1.1-2.25,4.6,4.6,0,0,1,2.91-.85,5.67,5.67,0,0,1,5.71,3.72h0l5.17-2.83a10.05,10.05,0,0,0-4.07-4.84A12.17,12.17,0,0,0,338.86,20a11.11,11.11,0,0,0-7.45,2.6,8.11,8.11,0,0,0-3.09,6.55,7.5,7.5,0,0,0,2.32,5.61q2.08,2.1,7.37,3.69a16.51,16.51,0,0,1,4.52,1.82,2.33,2.33,0,0,1,1.19,2.09,2.74,2.74,0,0,1-1.29,2.31,5.64,5.64,0,0,1-3.3.91,7,7,0,0,1-6.6-4.23h0l-5.4,2.79a10.85,10.85,0,0,0,4.49,5.23A13.74,13.74,0,0,0,338.94,51.27Z"/>
    </g>
    <path transform="translate(3, 0)" xmlns="http://www.w3.org/2000/svg" d="M109.48 67.11L109.48 67.11Q106.69 67.11 105.69 64.44L105.69 64.44L106.68 63.92Q107.10 64.94 107.76 65.49Q108.42 66.03 109.48 66.03L109.48 66.03Q110.46 66.03 111.15 65.50L111.15 65.50Q111.83 64.98 111.83 64.13L111.83 64.13Q111.83 63.29 111.19 62.77Q110.54 62.25 109.28 61.95L109.28 61.95Q107.60 61.54 106.81 60.80Q106.01 60.06 106.01 58.91L106.01 58.91Q106.01 57.55 107.02 56.74L107.02 56.74Q108.04 55.91 109.45 55.91L109.45 55.91Q110.75 55.91 111.64 56.53Q112.52 57.16 112.91 58.19L112.91 58.19L111.93 58.74Q111.23 56.99 109.42 56.99L109.42 56.99Q108.49 56.99 107.83 57.51L107.83 57.51Q107.16 58.03 107.16 58.85L107.16 58.85Q107.16 59.59 107.70 60.04Q108.25 60.49 109.49 60.81L109.49 60.81Q111.44 61.30 112.25 62.20L112.25 62.20Q113.01 63.01 113.01 64.05L113.01 64.05Q113.01 65.31 112.04 66.22L112.04 66.22Q111.09 67.11 109.48 67.11ZM119.03 67.13L119.03 67.13Q117.40 67.13 116.28 66.01L116.28 66.01Q115.18 64.90 115.18 63.29L115.18 63.29Q115.18 61.62 116.28 60.52L116.28 60.52Q117.40 59.40 119.06 59.40L119.06 59.40Q120.67 59.40 121.79 60.52L121.79 60.52Q122.91 61.64 122.91 63.23L122.91 63.23Q122.91 64.89 121.79 66.01L121.79 66.01Q120.67 67.13 119.03 67.13ZM119.06 66.16L119.06 66.16Q120.23 66.16 121.00 65.32L121.00 65.32Q121.79 64.47 121.79 63.29L121.79 63.29Q121.79 62.09 121.00 61.22L121.00 61.22Q120.22 60.35 119.03 60.35L119.03 60.35Q117.85 60.35 117.07 61.19L117.07 61.19Q116.30 62.02 116.30 63.23L116.30 63.23Q116.30 64.45 117.07 65.31L117.07 65.31Q117.84 66.16 119.06 66.16ZM125.52 55.59L126.63 55.59L126.63 67L125.52 67L125.52 55.59ZM129.53 56.85L129.53 56.85Q129.53 56.50 129.77 56.26Q130.00 56.02 130.34 56.02L130.34 56.02Q130.69 56.02 130.93 56.26Q131.17 56.50 131.17 56.85L131.17 56.85Q131.17 57.19 130.93 57.42Q130.69 57.66 130.34 57.66L130.34 57.66Q130.00 57.66 129.77 57.42Q129.53 57.19 129.53 56.85ZM129.79 59.52L130.90 59.52L130.90 67L129.79 67L129.79 59.52ZM133.53 63.25L133.53 63.25Q133.53 61.71 134.51 60.56L134.51 60.56Q135.51 59.40 137.03 59.40L137.03 59.40Q138.78 59.40 139.93 61.09L139.93 61.09L139.93 55.60L141.01 55.60L141.01 67L139.94 67L139.94 65.40Q138.91 67.11 137.03 67.11L137.03 67.11Q135.49 67.11 134.50 65.98L134.50 65.98Q133.53 64.84 133.53 63.25ZM137.26 66.15L137.26 66.15Q138.42 66.15 139.17 65.29L139.17 65.29Q139.94 64.44 139.94 63.23L139.94 63.23Q139.94 62.10 139.16 61.23L139.16 61.23Q138.38 60.36 137.26 60.36L137.26 60.36Q136.07 60.36 135.35 61.20L135.35 61.20Q134.64 62.02 134.64 63.28L134.64 63.28Q134.64 64.48 135.35 65.32L135.35 65.32Q136.07 66.15 137.26 66.15ZM153.78 67.11L153.78 67.11Q151.47 67.11 149.88 65.56L149.88 65.56Q148.32 63.99 148.32 61.55L148.32 61.55Q148.32 59.09 149.93 57.52L149.93 57.52Q151.55 55.93 153.83 55.93L153.83 55.93Q155.71 55.93 157.00 56.92L157.00 56.92Q158.28 57.91 158.72 59.29L158.72 59.29L157.68 59.76Q157.28 58.59 156.32 57.82L156.32 57.82Q155.39 57.02 153.80 57.02L153.80 57.02Q152.03 57.02 150.77 58.28L150.77 58.28Q149.52 59.55 149.52 61.48L149.52 61.48Q149.52 63.44 150.74 64.73L150.74 64.73Q151.96 66.02 153.82 66.02L153.82 66.02Q155.27 66.02 156.25 65.28Q157.22 64.54 157.70 63.25L157.70 63.25L158.73 63.74Q158.26 65.14 156.94 66.13L156.94 66.13Q155.67 67.11 153.78 67.11ZM164.51 67.13L164.51 67.13Q162.89 67.13 161.77 66.01L161.77 66.01Q160.66 64.90 160.66 63.29L160.66 63.29Q160.66 61.62 161.77 60.52L161.77 60.52Q162.89 59.40 164.54 59.40L164.54 59.40Q166.15 59.40 167.27 60.52L167.27 60.52Q168.39 61.64 168.39 63.23L168.39 63.23Q168.39 64.89 167.27 66.01L167.27 66.01Q166.15 67.13 164.51 67.13ZM164.54 66.16L164.54 66.16Q165.72 66.16 166.49 65.32L166.49 65.32Q167.27 64.47 167.27 63.29L167.27 63.29Q167.27 62.09 166.49 61.22L166.49 61.22Q165.70 60.35 164.51 60.35L164.51 60.35Q163.34 60.35 162.55 61.19L162.55 61.19Q161.78 62.02 161.78 63.23L161.78 63.23Q161.78 64.45 162.55 65.31L162.55 65.31Q163.32 66.16 164.54 66.16ZM171.01 55.59L172.12 55.59L172.12 67L171.01 67L171.01 55.59ZM178.58 67.13L178.58 67.13Q176.96 67.13 175.84 66.01L175.84 66.01Q174.73 64.90 174.73 63.29L174.73 63.29Q174.73 61.62 175.84 60.52L175.84 60.52Q176.96 59.40 178.61 59.40L178.61 59.40Q180.22 59.40 181.34 60.52L181.34 60.52Q182.46 61.64 182.46 63.23L182.46 63.23Q182.46 64.89 181.34 66.01L181.34 66.01Q180.22 67.13 178.58 67.13ZM178.61 66.16L178.61 66.16Q179.79 66.16 180.56 65.32L180.56 65.32Q181.34 64.47 181.34 63.29L181.34 63.29Q181.34 62.09 180.56 61.22L180.56 61.22Q179.77 60.35 178.58 60.35L178.58 60.35Q177.41 60.35 176.62 61.19L176.62 61.19Q175.85 62.02 175.85 63.23L175.85 63.23Q175.85 64.45 176.62 65.31L176.62 65.31Q177.39 66.16 178.61 66.16ZM185.08 67L185.08 59.52L186.16 59.52L186.16 61.01Q186.55 60.20 187.20 59.80Q187.85 59.41 188.57 59.41L188.57 59.41Q188.71 59.41 188.80 59.41Q188.89 59.41 188.93 59.43L188.93 59.43L188.93 60.59Q188.79 60.57 188.68 60.57Q188.58 60.56 188.51 60.56L188.51 60.56Q187.31 60.56 186.73 61.39L186.73 61.39Q186.17 62.20 186.17 63.35L186.17 63.35L186.17 67L185.08 67ZM197.15 62.72L197.15 67L196.00 67L196.00 56.04L199.67 56.04Q201.54 56.04 202.54 56.99L202.54 56.99Q203.52 57.93 203.52 59.33L203.52 59.33Q203.52 60.80 202.45 61.76L202.45 61.76Q201.38 62.72 199.47 62.72L199.47 62.72L197.15 62.72ZM199.57 57.12L197.15 57.12L197.15 61.65L199.51 61.65Q200.91 61.65 201.63 60.98L201.63 60.98Q202.34 60.28 202.34 59.37L202.34 59.37Q202.34 58.42 201.70 57.77L201.70 57.77Q201.04 57.12 199.57 57.12L199.57 57.12ZM205.67 56.85L205.67 56.85Q205.67 56.50 205.91 56.26Q206.15 56.02 206.49 56.02L206.49 56.02Q206.84 56.02 207.07 56.26Q207.31 56.50 207.31 56.85L207.31 56.85Q207.31 57.19 207.07 57.42Q206.84 57.66 206.49 57.66L206.49 57.66Q206.15 57.66 205.91 57.42Q205.67 57.19 205.67 56.85ZM205.94 59.52L207.05 59.52L207.05 67L205.94 67L205.94 59.52ZM210.78 63.22L210.78 63.22Q210.78 64.42 211.54 65.29L211.54 65.29Q212.30 66.16 213.49 66.16L213.49 66.16Q215.21 66.16 215.85 64.48L215.85 64.48L216.80 64.90Q216.45 65.87 215.60 66.50Q214.75 67.13 213.47 67.13L213.47 67.13Q211.88 67.13 210.76 66.03L210.76 66.03Q209.66 64.91 209.66 63.26L209.66 63.26Q209.66 61.62 210.77 60.52L210.77 60.52Q211.89 59.40 213.49 59.40L213.49 59.40Q214.75 59.40 215.60 60.02Q216.45 60.64 216.78 61.58L216.78 61.58L215.82 62.00Q215.57 61.30 214.99 60.83Q214.41 60.36 213.49 60.36L213.49 60.36Q212.32 60.36 211.54 61.20L211.54 61.20Q210.78 62.02 210.78 63.22ZM220.40 63.26L220.40 67L219.31 67L219.31 55.59L220.40 55.59L220.40 62.56L223.96 59.52L225.51 59.52L221.58 62.88L225.69 67L224.17 67L220.44 63.26L220.40 63.26ZM234.25 63.60L234.25 63.60L228.20 63.60Q228.27 64.69 229.03 65.43L229.03 65.43Q229.77 66.16 230.87 66.16L230.87 66.16Q231.66 66.16 232.29 65.75Q232.92 65.33 233.24 64.66L233.24 64.66L234.05 65.19Q233.58 66.12 232.74 66.62Q231.90 67.13 230.89 67.13L230.89 67.13Q229.28 67.13 228.19 66.01L228.19 66.01Q227.09 64.87 227.09 63.25L227.09 63.25Q227.09 61.69 228.14 60.55L228.14 60.55Q229.19 59.40 230.73 59.40L230.73 59.40Q232.41 59.40 233.34 60.48L233.34 60.48Q234.26 61.54 234.26 63.23L234.26 63.23Q234.26 63.36 234.26 63.45Q234.26 63.54 234.25 63.60ZM228.21 62.67L228.21 62.67L233.16 62.67Q233.04 61.62 232.41 60.99Q231.78 60.35 230.73 60.35L230.73 60.35Q229.77 60.35 229.07 61.04L229.07 61.04Q228.37 61.69 228.21 62.67ZM236.84 67L236.84 59.52L237.92 59.52L237.92 61.01Q238.31 60.20 238.96 59.80Q239.61 59.41 240.32 59.41L240.32 59.41Q240.46 59.41 240.55 59.41Q240.65 59.41 240.69 59.43L240.69 59.43L240.69 60.59Q240.55 60.57 240.44 60.57Q240.34 60.56 240.27 60.56L240.27 60.56Q239.06 60.56 238.49 61.39L238.49 61.39Q237.93 62.20 237.93 63.35L237.93 63.35L237.93 67L236.84 67Z" />
  </g>
</svg>